<svg width="1280" height="75" viewBox="0 0 1280 75" fill="none" xmlns="http://www.w3.org/2000/svg">
<mask id="path-1-outside-1" maskUnits="userSpaceOnUse" x="-2" y="0" width="1284" height="76" fill="black">
<rect fill="white" x="-2" width="1284" height="76"/>
<path d="M37.1078 73.8726L49.8217 2.12742H42.6895L37.3146 32.5679H14.5744L19.9493 2.12742H12.7138L0 73.8726H7.23551L13.4374 39.2299H36.1776L29.9757 73.8726H37.1078Z"/>
<path d="M83.1099 73.8726L84.2469 67.2105H59.8529L64.9177 38.9224H79.8022L81.0426 32.1579H66.1581L70.2927 8.78947H93.4463L94.5833 2.12742H64.1942L51.4803 73.8726H83.1099Z"/>
<path d="M130.604 73.8726L126.16 2.12742H118.511L88.6383 73.8726H95.7704L103.419 55.2188H122.335L123.265 73.8726H130.604ZM122.025 48.5568H106.107L113.239 30.723C115.926 24.0609 119.131 15.554 120.681 10.3269C120.578 15.6565 120.785 23.856 121.095 30.6205L122.025 48.5568Z"/>
<path d="M176.282 73.8726L171.011 39.5374C179.177 36.3601 185.482 28.3656 185.482 17.7064C185.482 7.14958 179.383 2.12742 169.564 2.12742H152.922L140.208 73.8726H147.444L153.232 41.2798C154.576 41.2798 163.052 41.3823 163.982 41.2798L169.047 73.8726H176.282ZM178.143 18.5263C178.143 27.5457 172.665 34.9252 163.775 34.9252H154.369L159.021 8.78947H168.117C174.939 8.78947 178.143 12.1717 178.143 18.5263Z"/>
<path d="M250.596 8.68698L251.733 2.12742H215.349L214.212 8.68698H228.786L217.209 73.8726H224.341L235.918 8.68698H250.596Z"/>
<path d="M285.324 73.8726L298.038 2.12742H290.906L285.531 32.5679H262.79L268.165 2.12742H260.93L248.216 73.8726H255.452L261.653 39.2299H284.394L278.192 73.8726H285.324Z"/>
<path d="M331.326 73.8726L332.463 67.2105H308.069L313.134 38.9224H328.018L329.259 32.1579H314.374L318.509 8.78947H341.662L342.799 2.12742H312.41L299.696 73.8726H331.326Z"/>
<path d="M375.006 73.8726C394.542 73.8726 406.636 53.7839 406.636 26.0083C406.636 10.2244 399.607 2.12742 387.1 2.12742H374.489L361.776 73.8726H375.006ZM399.297 26.4183C399.297 49.4792 390.201 67.2105 376.453 67.2105H370.148L380.588 8.78947H386.066C394.335 8.78947 399.297 14.0166 399.297 26.4183Z"/>
<path d="M418.788 73.8726L431.501 2.12742H424.266L411.552 73.8726H418.788Z"/>
<path d="M475.509 8.78947L476.646 2.12742H446.36L433.646 73.8726H440.882L446.98 39.7424H462.071L463.208 32.9778H448.117L452.458 8.78947H475.509Z"/>
<path d="M513.564 8.78947L514.701 2.12742H484.415L471.701 73.8726H478.937L485.035 39.7424H500.126L501.263 32.9778H486.172L490.514 8.78947H513.564Z"/>
<path d="M541.386 73.8726L542.523 67.2105H518.129L523.194 38.9224H538.078L539.319 32.1579H524.434L528.569 8.78947H551.722L552.859 2.12742H522.47L509.756 73.8726H541.386Z"/>
<path d="M586.813 73.8726L581.541 39.5374C589.707 36.3601 596.012 28.3656 596.012 17.7064C596.012 7.14958 589.914 2.12742 580.094 2.12742H563.453L550.739 73.8726H557.974L563.763 41.2798C565.106 41.2798 573.582 41.3823 574.513 41.2798L579.577 73.8726H586.813ZM588.674 18.5263C588.674 27.5457 583.195 34.9252 574.306 34.9252H564.9L569.551 8.78947H578.647C585.469 8.78947 588.674 12.1717 588.674 18.5263Z"/>
<path d="M630.417 73.8726L631.554 67.2105H607.16L612.224 38.9224H627.109L628.349 32.1579H613.465L617.599 8.78947H640.753L641.89 2.12742H611.501L598.787 73.8726H630.417Z"/>
<path d="M676.877 73.8726L689.591 2.12742H682.769L675.534 43.3296C674.81 47.6343 673.57 55.9363 673.363 58.9086C672.536 53.6814 670.985 46.097 669.332 39.6399L659.512 2.12742H652.483L639.769 73.8726H646.591L654.24 30.8255C654.964 26.5208 656.204 18.0138 656.515 15.0416C657.445 19.5512 659.512 28.5706 660.959 34.5152L670.779 73.8726H676.877Z"/>
<path d="M730.115 59.831L724.533 56.8587C720.915 64.8532 716.988 68.338 711.613 68.338C705.411 68.338 701.69 63.2133 701.69 51.5291C701.69 27.4432 709.649 7.66205 720.399 7.66205C725.153 7.66205 728.151 11.3518 729.185 19.2438L736.11 16.374C734.146 6.63712 729.391 1 720.399 1C705.204 1 694.557 22.831 694.557 49.9917C694.557 65.9806 699.932 75 710.889 75C719.882 75 725.98 69.1579 730.115 59.831Z"/>
<path d="M767.597 73.8726L768.734 67.2105H744.34L749.404 38.9224H764.289L765.529 32.1579H750.645L754.779 8.78947H777.933L779.07 2.12742H748.681L735.967 73.8726H767.597Z"/>
<path d="M863.269 2.12742H856.344L843.113 44.0471C841.563 48.9668 839.392 56.5512 838.255 60.651C838.565 56.5512 838.668 48.8643 838.668 44.0471V2.12742H832.57L817.789 44.0471C816.032 48.8643 813.448 56.5512 812.311 60.651C812.724 56.5512 813.137 48.9668 813.344 44.0471L814.998 2.12742H807.969L806.315 73.8726H812.827L825.645 38.5125C827.815 32.4654 831.433 21.8061 833.19 15.2465C832.673 21.8061 832.467 32.3629 832.467 38.5125L832.673 73.8726H839.392L863.269 2.12742Z"/>
<path d="M870.3 73.8726L883.014 2.12742H875.779L863.065 73.8726H870.3Z"/>
<path d="M926.402 8.68698L927.539 2.12742H891.154L890.017 8.68698H904.592L893.015 73.8726H900.147L911.724 8.68698H926.402Z"/>
<path d="M961.13 73.8726L973.843 2.12742H966.711L961.336 32.5679H938.596L943.971 2.12742H936.736L924.022 73.8726H931.257L937.459 39.2299H960.199L953.997 73.8726H961.13Z"/>
<path d="M1033.5 73.8726L1023.78 28.9806L1044.56 2.12742H1036.81L1020.68 23.241C1017.48 27.5457 1012.83 33.7978 1010.24 37.385C1010.66 34.9252 1011.9 28.7756 1012.41 25.8033L1016.55 2.12742H1009.31L996.599 73.8726H1003.83L1008.49 47.4294L1018 35.6427L1026.16 73.8726H1033.5Z"/>
<path d="M1070.88 73.8726L1072.02 67.2105H1049.49L1061.06 2.12742H1053.83L1041.11 73.8726H1070.88Z"/>
<path d="M1085.61 73.8726L1098.32 2.12742H1091.09L1078.37 73.8726H1085.61Z"/>
<path d="M1121.76 42.9197C1133.75 42.9197 1145.54 35.4377 1145.54 17.8089C1145.54 7.04709 1139.13 2.12742 1129 2.12742H1113.18L1100.47 73.8726H1107.7L1113.18 42.9197H1121.76ZM1138.3 18.7313C1138.3 29.4931 1132.3 36.2576 1123.31 36.2576H1114.42L1119.28 8.78947H1128.17C1134.58 8.78947 1138.3 12.1717 1138.3 18.7313Z"/>
<path d="M1160.57 75C1172.77 75 1180 65.7756 1180 53.9889C1180 45.892 1176.07 39.9474 1167.81 33.1828C1160.88 27.5457 1158.5 23.9584 1158.5 19.0388C1158.5 13.8116 1162.12 7.66205 1169.05 7.66205C1174.21 7.66205 1176.9 11.0443 1178.56 16.4765L1185.17 12.9917C1182.9 5.91967 1178.24 1 1169.56 1C1158.81 1 1151.37 9.19944 1151.37 19.9612C1151.37 27.6482 1156.33 34.0028 1162.64 38.9224C1169.87 44.5596 1172.77 49.6842 1172.77 55.4238C1172.77 63.0083 1168.32 68.338 1161.19 68.338C1155.92 68.338 1151.89 64.3407 1151.06 57.7812L1144.03 60.7535C1145.48 68.7479 1151.78 75 1160.57 75Z"/>
<path d="M1224.33 59.831L1218.74 56.8587C1215.13 64.8532 1211.2 68.338 1205.82 68.338C1199.62 68.338 1195.9 63.2133 1195.9 51.5291C1195.9 27.4432 1203.86 7.66205 1214.61 7.66205C1219.36 7.66205 1222.36 11.3518 1223.4 19.2438L1230.32 16.374C1228.36 6.63712 1223.6 1 1214.61 1C1199.42 1 1188.77 22.831 1188.77 49.9917C1188.77 65.9806 1194.14 75 1205.1 75C1214.09 75 1220.19 69.1579 1224.33 59.831Z"/>
<path d="M1267.29 73.8726L1280 2.12742H1272.87L1267.49 32.5679H1244.75L1250.13 2.12742H1242.89L1230.18 73.8726H1237.41L1243.62 39.2299H1266.36L1260.15 73.8726H1267.29Z"/>
</mask>
<path d="M37.1078 73.8726L49.8217 2.12742H42.6895L37.3146 32.5679H14.5744L19.9493 2.12742H12.7138L0 73.8726H7.23551L13.4374 39.2299H36.1776L29.9757 73.8726H37.1078Z" stroke="#232323" stroke-width="2" mask="url(#path-1-outside-1)"/>
<path d="M83.1099 73.8726L84.2469 67.2105H59.8529L64.9177 38.9224H79.8022L81.0426 32.1579H66.1581L70.2927 8.78947H93.4463L94.5833 2.12742H64.1942L51.4803 73.8726H83.1099Z" stroke="#232323" stroke-width="2" mask="url(#path-1-outside-1)"/>
<path d="M130.604 73.8726L126.16 2.12742H118.511L88.6383 73.8726H95.7704L103.419 55.2188H122.335L123.265 73.8726H130.604ZM122.025 48.5568H106.107L113.239 30.723C115.926 24.0609 119.131 15.554 120.681 10.3269C120.578 15.6565 120.785 23.856 121.095 30.6205L122.025 48.5568Z" stroke="#232323" stroke-width="2" mask="url(#path-1-outside-1)"/>
<path d="M176.282 73.8726L171.011 39.5374C179.177 36.3601 185.482 28.3656 185.482 17.7064C185.482 7.14958 179.383 2.12742 169.564 2.12742H152.922L140.208 73.8726H147.444L153.232 41.2798C154.576 41.2798 163.052 41.3823 163.982 41.2798L169.047 73.8726H176.282ZM178.143 18.5263C178.143 27.5457 172.665 34.9252 163.775 34.9252H154.369L159.021 8.78947H168.117C174.939 8.78947 178.143 12.1717 178.143 18.5263Z" stroke="#232323" stroke-width="2" mask="url(#path-1-outside-1)"/>
<path d="M250.596 8.68698L251.733 2.12742H215.349L214.212 8.68698H228.786L217.209 73.8726H224.341L235.918 8.68698H250.596Z" stroke="#232323" stroke-width="2" mask="url(#path-1-outside-1)"/>
<path d="M285.324 73.8726L298.038 2.12742H290.906L285.531 32.5679H262.79L268.165 2.12742H260.93L248.216 73.8726H255.452L261.653 39.2299H284.394L278.192 73.8726H285.324Z" stroke="#232323" stroke-width="2" mask="url(#path-1-outside-1)"/>
<path d="M331.326 73.8726L332.463 67.2105H308.069L313.134 38.9224H328.018L329.259 32.1579H314.374L318.509 8.78947H341.662L342.799 2.12742H312.41L299.696 73.8726H331.326Z" stroke="#232323" stroke-width="2" mask="url(#path-1-outside-1)"/>
<path d="M375.006 73.8726C394.542 73.8726 406.636 53.7839 406.636 26.0083C406.636 10.2244 399.607 2.12742 387.1 2.12742H374.489L361.776 73.8726H375.006ZM399.297 26.4183C399.297 49.4792 390.201 67.2105 376.453 67.2105H370.148L380.588 8.78947H386.066C394.335 8.78947 399.297 14.0166 399.297 26.4183Z" stroke="#232323" stroke-width="2" mask="url(#path-1-outside-1)"/>
<path d="M418.788 73.8726L431.501 2.12742H424.266L411.552 73.8726H418.788Z" stroke="#232323" stroke-width="2" mask="url(#path-1-outside-1)"/>
<path d="M475.509 8.78947L476.646 2.12742H446.36L433.646 73.8726H440.882L446.98 39.7424H462.071L463.208 32.9778H448.117L452.458 8.78947H475.509Z" stroke="#232323" stroke-width="2" mask="url(#path-1-outside-1)"/>
<path d="M513.564 8.78947L514.701 2.12742H484.415L471.701 73.8726H478.937L485.035 39.7424H500.126L501.263 32.9778H486.172L490.514 8.78947H513.564Z" stroke="#232323" stroke-width="2" mask="url(#path-1-outside-1)"/>
<path d="M541.386 73.8726L542.523 67.2105H518.129L523.194 38.9224H538.078L539.319 32.1579H524.434L528.569 8.78947H551.722L552.859 2.12742H522.47L509.756 73.8726H541.386Z" stroke="#232323" stroke-width="2" mask="url(#path-1-outside-1)"/>
<path d="M586.813 73.8726L581.541 39.5374C589.707 36.3601 596.012 28.3656 596.012 17.7064C596.012 7.14958 589.914 2.12742 580.094 2.12742H563.453L550.739 73.8726H557.974L563.763 41.2798C565.106 41.2798 573.582 41.3823 574.513 41.2798L579.577 73.8726H586.813ZM588.674 18.5263C588.674 27.5457 583.195 34.9252 574.306 34.9252H564.9L569.551 8.78947H578.647C585.469 8.78947 588.674 12.1717 588.674 18.5263Z" stroke="#232323" stroke-width="2" mask="url(#path-1-outside-1)"/>
<path d="M630.417 73.8726L631.554 67.2105H607.16L612.224 38.9224H627.109L628.349 32.1579H613.465L617.599 8.78947H640.753L641.89 2.12742H611.501L598.787 73.8726H630.417Z" stroke="#232323" stroke-width="2" mask="url(#path-1-outside-1)"/>
<path d="M676.877 73.8726L689.591 2.12742H682.769L675.534 43.3296C674.81 47.6343 673.57 55.9363 673.363 58.9086C672.536 53.6814 670.985 46.097 669.332 39.6399L659.512 2.12742H652.483L639.769 73.8726H646.591L654.24 30.8255C654.964 26.5208 656.204 18.0138 656.515 15.0416C657.445 19.5512 659.512 28.5706 660.959 34.5152L670.779 73.8726H676.877Z" stroke="#232323" stroke-width="2" mask="url(#path-1-outside-1)"/>
<path d="M730.115 59.831L724.533 56.8587C720.915 64.8532 716.988 68.338 711.613 68.338C705.411 68.338 701.69 63.2133 701.69 51.5291C701.69 27.4432 709.649 7.66205 720.399 7.66205C725.153 7.66205 728.151 11.3518 729.185 19.2438L736.11 16.374C734.146 6.63712 729.391 1 720.399 1C705.204 1 694.557 22.831 694.557 49.9917C694.557 65.9806 699.932 75 710.889 75C719.882 75 725.98 69.1579 730.115 59.831Z" stroke="#232323" stroke-width="2" mask="url(#path-1-outside-1)"/>
<path d="M767.597 73.8726L768.734 67.2105H744.34L749.404 38.9224H764.289L765.529 32.1579H750.645L754.779 8.78947H777.933L779.07 2.12742H748.681L735.967 73.8726H767.597Z" stroke="#232323" stroke-width="2" mask="url(#path-1-outside-1)"/>
<path d="M863.269 2.12742H856.344L843.113 44.0471C841.563 48.9668 839.392 56.5512 838.255 60.651C838.565 56.5512 838.668 48.8643 838.668 44.0471V2.12742H832.57L817.789 44.0471C816.032 48.8643 813.448 56.5512 812.311 60.651C812.724 56.5512 813.137 48.9668 813.344 44.0471L814.998 2.12742H807.969L806.315 73.8726H812.827L825.645 38.5125C827.815 32.4654 831.433 21.8061 833.19 15.2465C832.673 21.8061 832.467 32.3629 832.467 38.5125L832.673 73.8726H839.392L863.269 2.12742Z" stroke="#232323" stroke-width="2" mask="url(#path-1-outside-1)"/>
<path d="M870.3 73.8726L883.014 2.12742H875.779L863.065 73.8726H870.3Z" stroke="#232323" stroke-width="2" mask="url(#path-1-outside-1)"/>
<path d="M926.402 8.68698L927.539 2.12742H891.154L890.017 8.68698H904.592L893.015 73.8726H900.147L911.724 8.68698H926.402Z" stroke="#232323" stroke-width="2" mask="url(#path-1-outside-1)"/>
<path d="M961.13 73.8726L973.843 2.12742H966.711L961.336 32.5679H938.596L943.971 2.12742H936.736L924.022 73.8726H931.257L937.459 39.2299H960.199L953.997 73.8726H961.13Z" stroke="#232323" stroke-width="2" mask="url(#path-1-outside-1)"/>
<path d="M1033.5 73.8726L1023.78 28.9806L1044.56 2.12742H1036.81L1020.68 23.241C1017.48 27.5457 1012.83 33.7978 1010.24 37.385C1010.66 34.9252 1011.9 28.7756 1012.41 25.8033L1016.55 2.12742H1009.31L996.599 73.8726H1003.83L1008.49 47.4294L1018 35.6427L1026.16 73.8726H1033.5Z" stroke="#232323" stroke-width="2" mask="url(#path-1-outside-1)"/>
<path d="M1070.88 73.8726L1072.02 67.2105H1049.49L1061.06 2.12742H1053.83L1041.11 73.8726H1070.88Z" stroke="#232323" stroke-width="2" mask="url(#path-1-outside-1)"/>
<path d="M1085.61 73.8726L1098.32 2.12742H1091.09L1078.37 73.8726H1085.61Z" stroke="#232323" stroke-width="2" mask="url(#path-1-outside-1)"/>
<path d="M1121.76 42.9197C1133.75 42.9197 1145.54 35.4377 1145.54 17.8089C1145.54 7.04709 1139.13 2.12742 1129 2.12742H1113.18L1100.47 73.8726H1107.7L1113.18 42.9197H1121.76ZM1138.3 18.7313C1138.3 29.4931 1132.3 36.2576 1123.31 36.2576H1114.42L1119.28 8.78947H1128.17C1134.58 8.78947 1138.3 12.1717 1138.3 18.7313Z" stroke="#232323" stroke-width="2" mask="url(#path-1-outside-1)"/>
<path d="M1160.57 75C1172.77 75 1180 65.7756 1180 53.9889C1180 45.892 1176.07 39.9474 1167.81 33.1828C1160.88 27.5457 1158.5 23.9584 1158.5 19.0388C1158.5 13.8116 1162.12 7.66205 1169.05 7.66205C1174.21 7.66205 1176.9 11.0443 1178.56 16.4765L1185.17 12.9917C1182.9 5.91967 1178.24 1 1169.56 1C1158.81 1 1151.37 9.19944 1151.37 19.9612C1151.37 27.6482 1156.33 34.0028 1162.64 38.9224C1169.87 44.5596 1172.77 49.6842 1172.77 55.4238C1172.77 63.0083 1168.32 68.338 1161.19 68.338C1155.92 68.338 1151.89 64.3407 1151.06 57.7812L1144.03 60.7535C1145.48 68.7479 1151.78 75 1160.57 75Z" stroke="#232323" stroke-width="2" mask="url(#path-1-outside-1)"/>
<path d="M1224.33 59.831L1218.74 56.8587C1215.13 64.8532 1211.2 68.338 1205.82 68.338C1199.62 68.338 1195.9 63.2133 1195.9 51.5291C1195.9 27.4432 1203.86 7.66205 1214.61 7.66205C1219.36 7.66205 1222.36 11.3518 1223.4 19.2438L1230.32 16.374C1228.36 6.63712 1223.6 1 1214.61 1C1199.42 1 1188.77 22.831 1188.77 49.9917C1188.77 65.9806 1194.14 75 1205.1 75C1214.09 75 1220.19 69.1579 1224.33 59.831Z" stroke="#232323" stroke-width="2" mask="url(#path-1-outside-1)"/>
<path d="M1267.29 73.8726L1280 2.12742H1272.87L1267.49 32.5679H1244.75L1250.13 2.12742H1242.89L1230.18 73.8726H1237.41L1243.62 39.2299H1266.36L1260.15 73.8726H1267.29Z" stroke="#232323" stroke-width="2" mask="url(#path-1-outside-1)"/>
</svg>
