<svg width="1280" height="74" viewBox="0 0 1280 74" fill="none" xmlns="http://www.w3.org/2000/svg">
<path d="M37.1078 72.8726L49.8217 1.12742H42.6895L37.3146 31.5679H14.5744L19.9493 1.12742H12.7138L0 72.8726H7.23551L13.4374 38.2299H36.1776L29.9757 72.8726H37.1078Z" fill="#361625"/>
<path d="M83.1099 72.8726L84.2469 66.2105H59.8529L64.9177 37.9224H79.8022L81.0426 31.1579H66.1581L70.2927 7.78947H93.4463L94.5833 1.12742H64.1942L51.4803 72.8726H83.1099Z" fill="#361625"/>
<path d="M130.604 72.8726L126.16 1.12742H118.511L88.6383 72.8726H95.7704L103.419 54.2188H122.335L123.265 72.8726H130.604ZM122.025 47.5568H106.107L113.239 29.723C115.926 23.0609 119.131 14.554 120.681 9.32687C120.578 14.6565 120.785 22.856 121.095 29.6205L122.025 47.5568Z" fill="#361625"/>
<path d="M176.282 72.8726L171.011 38.5374C179.177 35.3601 185.482 27.3656 185.482 16.7064C185.482 6.14958 179.383 1.12742 169.564 1.12742H152.922L140.208 72.8726H147.444L153.232 40.2798C154.576 40.2798 163.052 40.3823 163.982 40.2798L169.047 72.8726H176.282ZM178.143 17.5263C178.143 26.5457 172.665 33.9252 163.775 33.9252H154.369L159.021 7.78947H168.117C174.939 7.78947 178.143 11.1717 178.143 17.5263Z" fill="#361625"/>
<path d="M250.596 7.68698L251.733 1.12742H215.349L214.212 7.68698H228.786L217.209 72.8726H224.341L235.918 7.68698H250.596Z" fill="#361625"/>
<path d="M285.324 72.8726L298.038 1.12742H290.906L285.531 31.5679H262.79L268.165 1.12742H260.93L248.216 72.8726H255.452L261.653 38.2299H284.394L278.192 72.8726H285.324Z" fill="#361625"/>
<path d="M331.326 72.8726L332.463 66.2105H308.069L313.134 37.9224H328.018L329.259 31.1579H314.374L318.509 7.78947H341.662L342.799 1.12742H312.41L299.696 72.8726H331.326Z" fill="#361625"/>
<path d="M375.006 72.8726C394.542 72.8726 406.636 52.7839 406.636 25.0083C406.636 9.22438 399.607 1.12742 387.1 1.12742H374.489L361.776 72.8726H375.006ZM399.297 25.4183C399.297 48.4792 390.201 66.2105 376.453 66.2105H370.148L380.588 7.78947H386.066C394.335 7.78947 399.297 13.0166 399.297 25.4183Z" fill="#361625"/>
<path d="M418.788 72.8726L431.501 1.12742H424.266L411.552 72.8726H418.788Z" fill="#361625"/>
<path d="M475.509 7.78947L476.646 1.12742H446.36L433.646 72.8726H440.882L446.98 38.7424H462.071L463.208 31.9778H448.117L452.458 7.78947H475.509Z" fill="#361625"/>
<path d="M513.564 7.78947L514.701 1.12742H484.415L471.701 72.8726H478.937L485.035 38.7424H500.126L501.263 31.9778H486.172L490.514 7.78947H513.564Z" fill="#361625"/>
<path d="M541.386 72.8726L542.523 66.2105H518.129L523.194 37.9224H538.078L539.319 31.1579H524.434L528.569 7.78947H551.722L552.859 1.12742H522.47L509.756 72.8726H541.386Z" fill="#361625"/>
<path d="M586.813 72.8726L581.541 38.5374C589.707 35.3601 596.012 27.3656 596.012 16.7064C596.012 6.14958 589.914 1.12742 580.094 1.12742H563.453L550.739 72.8726H557.974L563.763 40.2798C565.106 40.2798 573.582 40.3823 574.513 40.2798L579.577 72.8726H586.813ZM588.674 17.5263C588.674 26.5457 583.195 33.9252 574.306 33.9252H564.9L569.551 7.78947H578.647C585.469 7.78947 588.674 11.1717 588.674 17.5263Z" fill="#361625"/>
<path d="M630.417 72.8726L631.554 66.2105H607.16L612.224 37.9224H627.109L628.349 31.1579H613.465L617.599 7.78947H640.753L641.89 1.12742H611.501L598.787 72.8726H630.417Z" fill="#361625"/>
<path d="M676.877 72.8726L689.591 1.12742H682.769L675.534 42.3296C674.81 46.6343 673.57 54.9363 673.363 57.9086C672.536 52.6814 670.985 45.097 669.332 38.6399L659.512 1.12742H652.483L639.769 72.8726H646.591L654.24 29.8255C654.964 25.5208 656.204 17.0138 656.515 14.0416C657.445 18.5512 659.512 27.5706 660.959 33.5152L670.779 72.8726H676.877Z" fill="#361625"/>
<path d="M730.115 58.831L724.533 55.8587C720.915 63.8532 716.988 67.338 711.613 67.338C705.411 67.338 701.69 62.2133 701.69 50.5291C701.69 26.4432 709.649 6.66205 720.399 6.66205C725.153 6.66205 728.151 10.3518 729.185 18.2438L736.11 15.374C734.146 5.63712 729.391 0 720.399 0C705.204 0 694.557 21.831 694.557 48.9917C694.557 64.9806 699.932 74 710.889 74C719.882 74 725.98 68.1579 730.115 58.831Z" fill="#361625"/>
<path d="M767.597 72.8726L768.734 66.2105H744.34L749.404 37.9224H764.289L765.529 31.1579H750.645L754.779 7.78947H777.933L779.07 1.12742H748.681L735.967 72.8726H767.597Z" fill="#361625"/>
<path d="M863.269 1.12742H856.344L843.113 43.0471C841.563 47.9668 839.392 55.5512 838.255 59.651C838.565 55.5512 838.668 47.8643 838.668 43.0471V1.12742H832.57L817.789 43.0471C816.032 47.8643 813.448 55.5512 812.311 59.651C812.724 55.5512 813.137 47.9668 813.344 43.0471L814.998 1.12742H807.969L806.315 72.8726H812.827L825.645 37.5125C827.815 31.4654 831.433 20.8061 833.19 14.2465C832.673 20.8061 832.467 31.3629 832.467 37.5125L832.673 72.8726H839.392L863.269 1.12742Z" fill="#361625"/>
<path d="M870.3 72.8726L883.014 1.12742H875.779L863.065 72.8726H870.3Z" fill="#361625"/>
<path d="M926.402 7.68698L927.539 1.12742H891.154L890.017 7.68698H904.592L893.015 72.8726H900.147L911.724 7.68698H926.402Z" fill="#361625"/>
<path d="M961.13 72.8726L973.843 1.12742H966.711L961.336 31.5679H938.596L943.971 1.12742H936.736L924.022 72.8726H931.257L937.459 38.2299H960.199L953.997 72.8726H961.13Z" fill="#361625"/>
<path d="M1033.5 72.8726L1023.78 27.9806L1044.56 1.12742H1036.81L1020.68 22.241C1017.48 26.5457 1012.83 32.7978 1010.24 36.385C1010.66 33.9252 1011.9 27.7756 1012.41 24.8033L1016.55 1.12742H1009.31L996.599 72.8726H1003.83L1008.49 46.4294L1018 34.6427L1026.16 72.8726H1033.5Z" fill="#361625"/>
<path d="M1070.88 72.8726L1072.02 66.2105H1049.49L1061.06 1.12742H1053.83L1041.11 72.8726H1070.88Z" fill="#361625"/>
<path d="M1085.61 72.8726L1098.32 1.12742H1091.09L1078.37 72.8726H1085.61Z" fill="#361625"/>
<path d="M1121.76 41.9197C1133.75 41.9197 1145.54 34.4377 1145.54 16.8089C1145.54 6.04709 1139.13 1.12742 1129 1.12742H1113.18L1100.47 72.8726H1107.7L1113.18 41.9197H1121.76ZM1138.3 17.7313C1138.3 28.4931 1132.3 35.2576 1123.31 35.2576H1114.42L1119.28 7.78947H1128.17C1134.58 7.78947 1138.3 11.1717 1138.3 17.7313Z" fill="#361625"/>
<path d="M1160.57 74C1172.77 74 1180 64.7756 1180 52.9889C1180 44.892 1176.07 38.9474 1167.81 32.1828C1160.88 26.5457 1158.5 22.9584 1158.5 18.0388C1158.5 12.8116 1162.12 6.66205 1169.05 6.66205C1174.21 6.66205 1176.9 10.0443 1178.56 15.4765L1185.17 11.9917C1182.9 4.91967 1178.24 0 1169.56 0C1158.81 0 1151.37 8.19944 1151.37 18.9612C1151.37 26.6482 1156.33 33.0028 1162.64 37.9224C1169.87 43.5596 1172.77 48.6842 1172.77 54.4238C1172.77 62.0083 1168.32 67.338 1161.19 67.338C1155.92 67.338 1151.89 63.3407 1151.06 56.7812L1144.03 59.7535C1145.48 67.7479 1151.78 74 1160.57 74Z" fill="#361625"/>
<path d="M1224.33 58.831L1218.74 55.8587C1215.13 63.8532 1211.2 67.338 1205.82 67.338C1199.62 67.338 1195.9 62.2133 1195.9 50.5291C1195.9 26.4432 1203.86 6.66205 1214.61 6.66205C1219.36 6.66205 1222.36 10.3518 1223.4 18.2438L1230.32 15.374C1228.36 5.63712 1223.6 0 1214.61 0C1199.42 0 1188.77 21.831 1188.77 48.9917C1188.77 64.9806 1194.14 74 1205.1 74C1214.09 74 1220.19 68.1579 1224.33 58.831Z" fill="#361625"/>
<path d="M1267.29 72.8726L1280 1.12742H1272.87L1267.49 31.5679H1244.75L1250.13 1.12742H1242.89L1230.18 72.8726H1237.41L1243.62 38.2299H1266.36L1260.15 72.8726H1267.29Z" fill="#361625"/>
</svg>
