<svg width="167" height="38" viewBox="0 0 167 38" fill="none" xmlns="http://www.w3.org/2000/svg">
<path d="M10.0996 0.0258789H0V30.0718H10.0996V21.8098L18.2098 30.0718H31.9565L16.9346 15.036L31.9055 0.0258789H19.383L10.0996 8.62142V0.0258789Z" fill="white"/>
<path d="M42.3877 0.0258789H33.1042V30.0718H42.3877V0.0258789Z" fill="white"/>
<path d="M53.6348 0.0258789H44.5044V5.38847H53.6348V0.0258789Z" fill="white"/>
<path d="M53.6348 9.31396H44.5044V30.0972H53.6348V9.31396Z" fill="white"/>
<path d="M65.0607 9.31385V11.4178C65.0607 11.4178 68.1722 8.49278 72.8394 8.59541C81.3323 8.59541 81.3323 15.2409 81.3323 15.2409C81.3323 15.2409 81.3578 24.8115 81.3323 25.376C81.3068 25.9148 81.3323 30.405 73.426 30.405C67.4326 30.5846 64.8567 28.7629 64.8567 28.7629V38.0512H55.5732V9.31385H65.0607ZM65.5963 24.4779C65.5963 26.6589 72.4059 26.7102 72.4059 24.3496C72.4059 21.7068 72.4059 18.2943 72.4059 15.3436C72.4059 13.2652 65.5963 13.2652 65.5963 15.3436" fill="white"/>
<path d="M139.175 16.5497C139.175 16.5497 139.175 8.41602 125.377 8.41602C111.58 8.41602 111.58 17.8839 111.58 19.7057C111.58 20.9886 111.58 30.6618 126.27 30.6618C139.201 30.6618 139.124 21.784 139.124 21.784H130.198C130.198 21.784 130.172 25.2992 126.015 25.2992C121.45 25.2992 121.603 19.757 121.603 19.757C121.603 19.757 121.195 13.3424 126.092 13.3424C130.096 13.3424 129.968 16.5754 129.968 16.5497H139.175Z" fill="white"/>
<path d="M140.501 0V30.0716H150.703V15.2924C150.754 13.0601 157.462 13.0344 157.462 15.395C157.462 17.7299 157.462 30.0716 157.462 30.0716H166.975C166.975 30.0716 166.949 12.9318 166.975 12.2647C167 11.6232 166.847 7.87711 158.405 7.77448C149.989 7.64618 150.576 11.9824 150.576 11.9824V0H140.501V0Z" fill="white"/>
<path d="M163.251 4.77266C163.251 3.79764 163.991 3.05355 164.934 3.05355C165.852 3.05355 166.592 3.79764 166.592 4.77266C166.592 5.77333 165.852 6.49177 164.934 6.49177C163.965 6.49177 163.251 5.77333 163.251 4.77266ZM164.909 6.82533C166.031 6.82533 166.975 5.95294 166.975 4.747C166.975 3.56672 166.005 2.69434 164.909 2.69434C163.787 2.69434 162.817 3.56672 162.817 4.747C162.817 5.95294 163.787 6.82533 164.909 6.82533ZM164.475 4.92661H164.883L165.521 5.95294H165.929L165.266 4.90095C165.623 4.84964 165.878 4.67003 165.878 4.23384C165.878 3.77199 165.597 3.56672 165.036 3.56672H164.144V5.95294H164.501V4.92661H164.475ZM164.475 4.61871V3.87462H164.96C165.215 3.87462 165.47 3.92594 165.47 4.23384C165.47 4.59305 165.189 4.61871 164.883 4.61871H164.475Z" fill="white"/>
<path d="M109.922 14.5227H100.715C100.664 12.6496 96.2775 12.7523 96.2775 12.7523C96.2775 12.7523 91.7633 12.7779 91.7123 14.6253C91.7378 18.6794 105.204 15.3694 108.979 19.1669C112.141 22.3485 110.152 25.9407 109.106 27.1466C107.831 28.6348 104.796 30.7131 97.4762 30.7131C82.5054 30.7131 82.5564 24.0933 82.5564 24.0933H92.1204C92.1204 24.0933 91.5338 26.0176 96.354 26.069C101.149 26.1459 101.021 23.8623 101.021 23.8623C101.021 23.8623 101.812 21.8097 96.3795 21.8097C82.5309 21.8097 82.5564 17.0629 82.5564 15.7543C82.5564 8.39036 93.6761 8.41602 96.3285 8.41602C99.5676 8.41602 105.893 8.54431 108.596 11.2641C109.744 12.3931 109.922 14.5227 109.922 14.5227Z" fill="white"/>
</svg>
